<?xml version="1.0" encoding="utf-8"?>
<!-- Generator: Adobe Illustrator 15.1.0, SVG Export Plug-In . SVG Version: 6.00 Build 0)  -->
<!DOCTYPE svg PUBLIC "-//W3C//DTD SVG 1.1//EN" "http://www.w3.org/Graphics/SVG/1.1/DTD/svg11.dtd">
<svg version="1.1" id="Layer_1" xmlns="http://www.w3.org/2000/svg" xmlns:xlink="http://www.w3.org/1999/xlink" x="0px" y="0px"
	 width="218.999px" height="156.999px" viewBox="0 0 218.999 156.999" enable-background="new 0 0 218.999 156.999"
	 xml:space="preserve">
<g>
	<path fill-rule="evenodd" clip-rule="evenodd" fill="#FFFFFF" d="M83.634,0c17.301,0,34.602,0,51.904,0
		c4.185,4.684,7.123,10.615,10.468,16.138c-24.425,0-48.851,0-73.276,0C75.826,10.22,79.583,4.963,83.634,0z M100.645,12.212
		c5.961,0,11.922,0,17.883,0c0-2.762,0-5.525,0-8.287c-5.961,0-11.922,0-17.883,0C100.645,6.688,100.645,9.45,100.645,12.212z"/>
	<path fill-rule="evenodd" clip-rule="evenodd" fill="#FFFFFF" d="M193.112,6.542c1.201,3.015,2.446,5.986,3.489,9.159
		c-9.741,0-19.482,0-29.224,0c1.627-2.88,2.189-6.825,4.362-9.159C178.864,6.542,185.988,6.542,193.112,6.542z"/>
	<path fill-rule="evenodd" clip-rule="evenodd" fill="#FFFFFF" d="M46.996,9.596c0.322,2.149,0.912,4.031,1.309,6.106
		c-6.542,0-13.085,0-19.627,0c0.216-2.4,1.346-3.888,1.745-6.106C35.947,9.596,41.471,9.596,46.996,9.596z"/>
	<path fill-rule="evenodd" clip-rule="evenodd" fill="#FFFFFF" d="M218.846,62.372c-11.105,0-24.169,0-36.638,0
		c-3.898,0-11.776,0-11.776,0s-6.023-7.832-8.724-10.468c-7.452-7.275-19.081-13.474-34.021-13.085
		c-18.379,0.479-30.198,10.687-39.691,23.117c-29.078,0-58.156,0-87.233,0C0.685,39.62-2.58,20.329,17.773,17.883
		c13.965-1.679,31.578,0,47.979,0c38.07,0,80.48,0,119.946,0c16.239,0,29.042-0.661,31.84,10.904
		C219.658,37.555,218.846,54.139,218.846,62.372z"/>
	<path fill-rule="evenodd" clip-rule="evenodd" fill="#FFFFFF" d="M128.56,55.829c15.738-0.448,29.285,11.563,30.968,26.606
		c2.44,21.818-14.538,34.323-30.096,34.457c-21.289,0.184-40.374-24.08-26.606-46.67C106.382,64.388,114.975,56.216,128.56,55.829z"
		/>
	<path fill-rule="evenodd" clip-rule="evenodd" fill="#FFFFFF" d="M1.635,66.297c28.06,0,56.12,0,84.18,0
		c-9.854,24.094,0.241,48.637,16.574,59.318c7.675,5.019,18.97,8.729,30.532,7.851c30.712-2.33,52.833-35.224,39.255-67.169
		c15.557,0,31.113,0,46.67,0c0,21.839,0,38.729,0,60.191c0,13.95-0.384,24.333-10.904,28.351
		c-10.249,3.915-35.477,1.309-48.414,1.309c-33.858,0-65.391,0-99.446,0c-22.732,0-51.948,4.6-58.01-10.904
		c-3.705-9.477-1.308-25.575-1.308-38.383c0-14.296,0-26.788,0-39.255C0.743,66.86,1.086,66.476,1.635,66.297z"/>
</g>
</svg>
