<?xml version="1.0" encoding="utf-8"?>
<svg version="1.1" id="Layer_1" xmlns="http://www.w3.org/2000/svg" xmlns:xlink="http://www.w3.org/1999/xlink" x="0px" y="0px"
	 viewBox="141.9 1913.5 3968.2 3968.2" style="enable-background:new 141.9 1913.5 3968.2 3968.2;" xml:space="preserve">
<style type="text/css">
	.st0{fill:url(#SVGID_1_);}
	.st1{fill:url(#SVGID_2_);}
	.st2{fill:none;stroke:#303030;stroke-width:1.5;stroke-linecap:round;stroke-linejoin:round;stroke-miterlimit:1.5;}
	.st3{fill:#303030;}
	.st4{fill:url(#SVGID_3_);}
	.st5{fill:none;stroke:#303030;stroke-width:117;stroke-linecap:round;stroke-miterlimit:10;}
</style>
<g id="Icon.-Charging-Station---Ready">
	<linearGradient id="SVGID_1_" gradientUnits="userSpaceOnUse" x1="713.7581" y1="3897.6399" x2="3691.1313" y2="3897.6399">
		<stop  offset="0" style="stop-color:#2D2D2D"/>
		<stop  offset="1" style="stop-color:#000000;stop-opacity:0.8039"/>
	</linearGradient>
	<circle class="st0" cx="2126" cy="3897.6" r="1984.1"/>
	
		<linearGradient id="SVGID_2_" gradientUnits="userSpaceOnUse" x1="0.4492" y1="7795.2021" x2="1.4492" y2="7795.2021" gradientTransform="matrix(1.656539e-13 2705.3301 2705.3301 -1.656539e-13 -21086470 1455.5544)">
		<stop  offset="0" style="stop-color:#90FF5F"/>
		<stop  offset="1" style="stop-color:#43AC16"/>
	</linearGradient>
	<circle class="st1" cx="2126" cy="3897.6" r="1409.2"/>
	<path class="st2" d="M2288.9,4150.6l478.4,662.1"/>
	<path class="st2" d="M1963.2,4150.6l-478.4,662.1"/>
	<path class="st3" d="M2106.6,4766.6c484.7,0,878.4-393.5,878.4-878.4c-356.1-2.5-1157.3,5.4-1756.7,0
		C1228.3,4373.1,1621.8,4766.6,2106.6,4766.6z"/>
	
		<linearGradient id="SVGID_3_" gradientUnits="userSpaceOnUse" x1="2.9526" y1="7795.3345" x2="3.9526" y2="7795.3345" gradientTransform="matrix(2.520181e-14 411.5766 411.5766 -2.520181e-14 -3206251 2483.3618)">
		<stop  offset="0" style="stop-color:#90FF5F"/>
		<stop  offset="1" style="stop-color:#43AC16"/>
	</linearGradient>
	<circle class="st4" cx="2126" cy="3885.3" r="214.4"/>
	<path class="st3" d="M2134.4,3559.6l8.2,0.3l8.3,0.5l8.3,0.8l8.1,0.9l8.1,1.1l8,1.3l8,1.6l7.9,1.7l7.8,1.9l7.8,2.1l7.7,2.4l7.7,2.5
		l7.6,2.6l7.5,2.8l7.4,3l7.3,3.2l7.2,3.3l7,3.5l7.1,3.8l6.9,3.8l6.7,4.1l6.7,4.2l6.5,4.3l6.4,4.5l6.3,4.5l6.1,4.7l6.1,4.9l6,5.1
		l5.9,5.2l5.7,5.3l5.6,5.5l5.5,5.6l5.3,5.7l5.2,5.9l5,6l4.9,6l4.8,6.2l4.5,6.3l4.5,6.4l4.3,6.5l4.2,6.7l4.1,6.8l3.8,6.8l3.7,7
		l3.6,7.1l3.3,7.2l3.2,7.3l3,7.4l2.8,7.5l2.6,7.6l2.5,7.6l2.4,7.8l2.1,7.7l1.9,7.8l1.7,7.9l1.6,8l1.3,8l1.1,8.1l0.9,8.2l0.8,8.2
		l0.5,8.2l0.3,8.3l0.2,8.4l-0.2,8.3l-0.3,8.3l-0.5,8.2l-0.8,8.2l-0.9,8.3l-1.1,8.1l-1.3,8l-1.5,7.9l-1.8,7.9l-1.9,7.8l-2.1,7.8
		l-2.4,7.7l-2.5,7.7l-2.6,7.5l-2.8,7.5l-3,7.4l-3.2,7.3l-3.3,7.2l-3.6,7.1l-3.7,7l-3.8,6.8l-4,6.8l-4.3,6.7l-4.3,6.5l-4.5,6.5
		l-4.5,6.2l-4.8,6.2l-4.9,6l-5,6l-5.2,5.9l-5.3,5.8l-5.5,5.6l-5.6,5.4l-5.7,5.3l-5.9,5.2l-6,5.1l-6.1,4.9l-6.1,4.7l-6.3,4.6
		l-6.4,4.4l-6.5,4.3l-6.7,4.2l-6.7,4.1l-6.9,3.9l-7,3.7l-7.1,3.5l-7.2,3.3l-7.3,3.2l-7.4,3l-7.5,2.8l-7.6,2.6l-7.7,2.5l-7.7,2.4
		l-7.7,2.1l-7.9,1.9l-7.9,1.8l-8,1.5l-8,1.3l-8.1,1.1l-8.1,0.9l-8.2,0.8l-8.3,0.5l-8.3,0.4l-8.4,0.1l-8.3-0.1l-8.3-0.4l-8.3-0.5
		l-8.2-0.8l-8.1-0.9l-8.1-1.1l-8.1-1.3l-7.9-1.5l-7.9-1.8l-7.9-1.9l-7.7-2.1l-7.7-2.4l-7.6-2.5l-7.6-2.6l-7.5-2.8l-7.4-3l-7.3-3.1
		l-7.2-3.4l-7.1-3.5l-7-3.7l-6.9-3.9l-6.8-4.1l-6.6-4.2l-6.5-4.3l-6.4-4.4l-6.3-4.6l-6.2-4.8l-6-4.8l-6-5.1l-5.9-5.2l-5.7-5.3
		l-5.7-5.5l-5.4-5.6l-5.3-5.7l-5.2-5.9l-5.1-6l-4.8-6l-4.8-6.2l-4.5-6.2l-4.5-6.5l-4.3-6.6l-4.1-6.6l-4.1-6.7l-3.9-6.9l-3.6-7
		l-3.6-7.1l-3.4-7.2l-3.1-7.3l-3-7.4l-2.8-7.5l-2.6-7.6l-2.5-7.7l-2.4-7.7l-2.1-7.7l-1.9-7.9l-1.8-7.9l-1.5-7.9l-1.3-8.1l-1.1-8.1
		l-0.9-8.1l-0.8-8.2l-0.5-8.3l-0.4-8.3l-0.1-8.3l0.1-8.4l0.4-8.3l0.5-8.3l0.8-8.2l0.9-8.1l1.1-8.1l1.3-8l1.5-8l1.8-7.9l1.9-7.8
		l2.1-7.8l2.4-7.7l2.5-7.7l2.6-7.6l2.8-7.5l3-7.4l3.1-7.2l3.4-7.3l3.6-7.1l3.6-7l3.9-6.9l4.1-6.7l4.1-6.6l4.3-6.6l4.4-6.4l4.6-6.3
		l4.8-6.2l4.9-6l5-6l5.2-5.9l5.3-5.7l5.4-5.6l5.7-5.5l5.7-5.3l5.9-5.2l6-5.1l6-4.8l6.2-4.8l6.3-4.5l6.4-4.5l6.5-4.3l6.6-4.2l6.8-4.1
		l6.9-3.9l7.1-3.7l7-3.5l7.2-3.3l7.3-3.2l7.4-3l7.5-2.8l7.6-2.6l7.6-2.5l7.7-2.4l7.8-2.1l7.8-1.9l7.9-1.7l7.9-1.6l8.1-1.3l8.1-1.1
		l8.1-0.9l8.3-0.8l8.2-0.5l8.3-0.3l8.3-0.2L2134.4,3559.6L2134.4,3559.6z M2120.5,3670.9l-5.5,0.3l-5.5,0.3l-5.4,0.5l-5.4,0.7
		l-5.4,0.8l-5.3,0.9l-5.3,1l-5.2,1.1l-5.1,1.2l-5.1,1.4l-5.1,1.5l-5,1.6l-4.9,1.7l-4.9,1.9l-4.8,2l-4.8,2.1l-4.7,2.3l-4.6,2.3
		l-4.6,2.5l-4.5,2.5l-4.4,2.6l-4.3,2.7l-4.3,2.8l-4.3,2.9l-4.2,3.1l-4.1,3.1l-4,3.2l-4,3.3l-3.9,3.4l-3.8,3.5l-3.7,3.7l-3.6,3.6
		l-3.5,3.8l-3.4,3.9l-3.3,4l-3.2,4l-3.2,4.1l-3,4.2l-2.9,4.3l-2.8,4.3l-2.7,4.3l-2.6,4.5l-2.6,4.4l-2.4,4.6l-2.4,4.6l-2.2,4.7
		l-2.1,4.8l-2,4.8l-1.9,4.9l-1.7,4.9l-1.6,5l-1.5,5.1l-1.4,5.1l-1.2,5.1l-1.1,5.3l-1,5.2l-0.9,5.3l-0.8,5.4l-0.7,5.4l-0.5,5.4
		l-0.4,5.5l-0.2,5.5l-0.1,5.6l0.1,5.5l0.2,5.5l0.4,5.5l0.5,5.4l0.7,5.4l0.8,5.4l0.9,5.3l1,5.3l1.1,5.2l1.2,5.1l1.4,5.1l1.5,5.1
		l1.6,5l1.7,4.9l1.9,4.9l2,4.8l2.1,4.8l2.2,4.7l2.4,4.6l2.4,4.6l2.6,4.5l2.6,4.4l2.7,4.3l2.8,4.3l2.9,4.3l3,4.2l3.2,4.1l3.2,4.1
		l3.3,3.9l3.4,3.9l3.5,3.8l3.6,3.7l3.7,3.6l3.8,3.5l3.9,3.4l4,3.3l4,3.2l4.1,3.2l4.2,3l4.3,2.9l4.3,2.8l4.3,2.7l4.4,2.6l4.5,2.6
		l4.6,2.4l4.6,2.4l4.7,2.2l4.8,2.1l4.8,2l4.9,1.9l4.9,1.7l5,1.6l5.1,1.5l5.1,1.4l5.1,1.2l5.2,1.1l5.3,1l5.3,0.9l5.4,0.8l5.4,0.7
		l5.4,0.5l5.5,0.4l5.5,0.2l5.5,0.1l5.6-0.1l5.5-0.2l5.5-0.4l5.4-0.5l5.4-0.7l5.4-0.8l5.3-0.9l5.2-1l5.3-1.1l5.1-1.2l5.1-1.4l5.1-1.5
		l5-1.6l4.9-1.7l4.9-1.9l4.8-2l4.8-2.1l4.7-2.2l4.6-2.4l4.6-2.4l4.4-2.6l4.5-2.6l4.3-2.7l4.3-2.8l4.3-2.9l4.2-3l4.1-3.2l4-3.2l4-3.3
		l3.9-3.4l3.8-3.5l3.7-3.6l3.6-3.7l3.5-3.8l3.4-3.9l3.3-3.9l3.2-4.1l3.1-4.1l3.1-4.2l2.9-4.3l2.8-4.3l2.7-4.3l2.6-4.4l2.5-4.5
		l2.5-4.6l2.3-4.6l2.3-4.7l2.1-4.8l2-4.8l1.9-4.9l1.7-4.9l1.6-5l1.5-5.1l1.4-5.1l1.2-5.1l1.1-5.2l1-5.3l0.9-5.3l0.8-5.4l0.7-5.4
		l0.5-5.4l0.3-5.5l0.3-5.5v-5.5v-5.6l-0.3-5.5l-0.3-5.5l-0.5-5.4l-0.7-5.4l-0.8-5.4l-0.9-5.3l-1-5.2l-1.1-5.3l-1.2-5.1l-1.4-5.1
		l-1.5-5.1l-1.6-5l-1.7-4.9l-1.9-4.9l-2-4.8l-2.1-4.8l-2.3-4.7l-2.3-4.6l-2.5-4.6l-2.5-4.4l-2.6-4.5l-2.7-4.3l-2.8-4.3l-2.9-4.3
		l-3.1-4.2l-3.1-4.1l-3.2-4l-3.3-4l-3.4-3.9l-3.5-3.8l-3.6-3.6l-3.7-3.7l-3.8-3.5l-3.9-3.4l-4-3.3l-4-3.2l-4.1-3.1l-4.2-3.1
		l-4.3-2.9l-4.3-2.8l-4.3-2.7l-4.5-2.6l-4.4-2.5l-4.6-2.5l-4.6-2.3l-4.7-2.3l-4.8-2.1l-4.8-2l-4.9-1.9l-4.9-1.7l-5-1.6l-5.1-1.5
		l-5.1-1.4l-5.1-1.2l-5.3-1.1l-5.2-1l-5.3-0.9l-5.4-0.8l-5.4-0.7l-5.4-0.5l-5.5-0.3l-5.5-0.3h-5.6H2120.5z"/>
	<line class="st5" x1="1963.2" y1="4150.6" x2="1484.8" y2="4812.7"/>
	<line class="st5" x1="2288.9" y1="4150.6" x2="2767.3" y2="4812.7"/>
</g>
</svg>
